<mxfile host="app.diagrams.net" modified="2024-01-29T15:03:54.410Z" agent="Mozilla/5.0 (Windows NT 10.0; Win64; x64) AppleWebKit/537.36 (KHTML, like Gecko) Chrome/121.0.0.0 Safari/537.36" etag="3yBMp5g3dquBPbkNqul7" version="22.1.21" type="github">
  <diagram name="Page-1" id="xG1oCND4ZIqmZRpoTB4F">
    <mxGraphModel dx="875" dy="475" grid="1" gridSize="10" guides="1" tooltips="1" connect="1" arrows="1" fold="1" page="1" pageScale="1" pageWidth="1100" pageHeight="850" math="0" shadow="0">
      <root>
        <mxCell id="0" />
        <mxCell id="1" parent="0" />
        <mxCell id="4stogALk5xr9jpJqIoR7-9" value="&lt;font style=&quot;font-size: 24px;&quot;&gt;Admin&lt;/font&gt;" style="whiteSpace=wrap;html=1;aspect=fixed;container=0;" vertex="1" parent="1">
          <mxGeometry y="40" width="130" height="130" as="geometry" />
        </mxCell>
        <mxCell id="4stogALk5xr9jpJqIoR7-10" value="VISITOR" style="whiteSpace=wrap;html=1;aspect=fixed;fontSize=24;" vertex="1" parent="1">
          <mxGeometry y="280" width="130" height="130" as="geometry" />
        </mxCell>
        <mxCell id="4stogALk5xr9jpJqIoR7-148" style="edgeStyle=orthogonalEdgeStyle;rounded=0;orthogonalLoop=1;jettySize=auto;html=1;exitX=1;exitY=0.25;exitDx=0;exitDy=0;entryX=0.062;entryY=0.735;entryDx=0;entryDy=0;entryPerimeter=0;" edge="1" parent="1">
          <mxGeometry relative="1" as="geometry">
            <mxPoint x="604.96" y="337.80000000000007" as="targetPoint" />
            <mxPoint x="130.0000000000001" y="551.48" as="sourcePoint" />
            <Array as="points">
              <mxPoint x="520" y="552" />
              <mxPoint x="520" y="338" />
            </Array>
          </mxGeometry>
        </mxCell>
        <mxCell id="4stogALk5xr9jpJqIoR7-149" value="Request Category&amp;nbsp;" style="edgeLabel;html=1;align=center;verticalAlign=middle;resizable=0;points=[];" vertex="1" connectable="0" parent="4stogALk5xr9jpJqIoR7-148">
          <mxGeometry x="-0.1918" relative="1" as="geometry">
            <mxPoint x="-198" y="-2" as="offset" />
          </mxGeometry>
        </mxCell>
        <mxCell id="4stogALk5xr9jpJqIoR7-180" style="edgeStyle=orthogonalEdgeStyle;rounded=0;orthogonalLoop=1;jettySize=auto;html=1;exitX=0.75;exitY=1;exitDx=0;exitDy=0;entryX=0;entryY=0.5;entryDx=0;entryDy=0;" edge="1" parent="1" source="4stogALk5xr9jpJqIoR7-11" target="4stogALk5xr9jpJqIoR7-112">
          <mxGeometry relative="1" as="geometry" />
        </mxCell>
        <mxCell id="4stogALk5xr9jpJqIoR7-184" value="Generate Report" style="edgeLabel;html=1;align=center;verticalAlign=middle;resizable=0;points=[];" vertex="1" connectable="0" parent="4stogALk5xr9jpJqIoR7-180">
          <mxGeometry x="0.3369" y="-3" relative="1" as="geometry">
            <mxPoint as="offset" />
          </mxGeometry>
        </mxCell>
        <mxCell id="4stogALk5xr9jpJqIoR7-11" value="&lt;font style=&quot;font-size: 20px;&quot;&gt;CUSTOMER&lt;/font&gt;" style="whiteSpace=wrap;html=1;aspect=fixed;" vertex="1" parent="1">
          <mxGeometry y="520" width="130" height="130" as="geometry" />
        </mxCell>
        <mxCell id="4stogALk5xr9jpJqIoR7-16" value="" style="endArrow=classic;html=1;rounded=0;exitX=0.999;exitY=0.078;exitDx=0;exitDy=0;exitPerimeter=0;entryX=0.086;entryY=0.254;entryDx=0;entryDy=0;entryPerimeter=0;" edge="1" parent="1" source="4stogALk5xr9jpJqIoR7-9" target="4stogALk5xr9jpJqIoR7-102">
          <mxGeometry relative="1" as="geometry">
            <mxPoint x="170" y="50" as="sourcePoint" />
            <mxPoint x="370" y="170" as="targetPoint" />
            <Array as="points">
              <mxPoint x="360" y="50" />
              <mxPoint x="360" y="180" />
            </Array>
          </mxGeometry>
        </mxCell>
        <mxCell id="4stogALk5xr9jpJqIoR7-17" value="LOGIN CREDENTIALS" style="edgeLabel;resizable=0;html=1;align=center;verticalAlign=middle;" connectable="0" vertex="1" parent="4stogALk5xr9jpJqIoR7-16">
          <mxGeometry relative="1" as="geometry">
            <mxPoint y="-61" as="offset" />
          </mxGeometry>
        </mxCell>
        <mxCell id="4stogALk5xr9jpJqIoR7-18" value="" style="endArrow=classic;html=1;rounded=0;exitX=0.02;exitY=0.377;exitDx=0;exitDy=0;exitPerimeter=0;entryX=1.001;entryY=0.153;entryDx=0;entryDy=0;entryPerimeter=0;" edge="1" parent="1" source="4stogALk5xr9jpJqIoR7-102" target="4stogALk5xr9jpJqIoR7-9">
          <mxGeometry relative="1" as="geometry">
            <mxPoint x="477.79999999999995" y="179.84000000000003" as="sourcePoint" />
            <mxPoint x="130" y="60" as="targetPoint" />
            <Array as="points">
              <mxPoint x="350" y="190" />
              <mxPoint x="350" y="60" />
            </Array>
          </mxGeometry>
        </mxCell>
        <mxCell id="4stogALk5xr9jpJqIoR7-19" value="LOGIN CONFIRM&lt;br&gt;" style="edgeLabel;resizable=0;html=1;align=center;verticalAlign=middle;" connectable="0" vertex="1" parent="4stogALk5xr9jpJqIoR7-18">
          <mxGeometry relative="1" as="geometry">
            <mxPoint y="-61" as="offset" />
          </mxGeometry>
        </mxCell>
        <mxCell id="4stogALk5xr9jpJqIoR7-195" style="edgeStyle=orthogonalEdgeStyle;rounded=0;orthogonalLoop=1;jettySize=auto;html=1;exitX=0.5;exitY=1;exitDx=0;exitDy=0;entryX=1;entryY=1;entryDx=0;entryDy=0;" edge="1" parent="1" source="4stogALk5xr9jpJqIoR7-74" target="4stogALk5xr9jpJqIoR7-100">
          <mxGeometry relative="1" as="geometry">
            <Array as="points">
              <mxPoint x="935" y="130" />
              <mxPoint x="668" y="130" />
            </Array>
          </mxGeometry>
        </mxCell>
        <mxCell id="4stogALk5xr9jpJqIoR7-197" value="Acknowledgement&amp;nbsp;" style="edgeLabel;html=1;align=center;verticalAlign=middle;resizable=0;points=[];" vertex="1" connectable="0" parent="4stogALk5xr9jpJqIoR7-195">
          <mxGeometry x="0.3661" y="-1" relative="1" as="geometry">
            <mxPoint as="offset" />
          </mxGeometry>
        </mxCell>
        <mxCell id="4stogALk5xr9jpJqIoR7-74" value="TBL_REGISTER" style="html=1;dashed=0;whiteSpace=wrap;shape=partialRectangle;right=0;left=0;" vertex="1" parent="1">
          <mxGeometry x="840" y="62.5" width="190" height="35" as="geometry" />
        </mxCell>
        <mxCell id="4stogALk5xr9jpJqIoR7-75" value="TBL_LOGIN" style="html=1;dashed=0;whiteSpace=wrap;shape=partialRectangle;right=0;left=0;" vertex="1" parent="1">
          <mxGeometry x="840" y="190" width="190" height="35" as="geometry" />
        </mxCell>
        <mxCell id="4stogALk5xr9jpJqIoR7-76" value="TBL_CATEGORY" style="html=1;dashed=0;whiteSpace=wrap;shape=partialRectangle;right=0;left=0;" vertex="1" parent="1">
          <mxGeometry x="840" y="312.5" width="190" height="35" as="geometry" />
        </mxCell>
        <mxCell id="4stogALk5xr9jpJqIoR7-89" value="TBL_STOCK" style="html=1;dashed=0;whiteSpace=wrap;shape=partialRectangle;right=0;left=0;" vertex="1" parent="1">
          <mxGeometry x="840" y="432.5" width="190" height="35" as="geometry" />
        </mxCell>
        <mxCell id="4stogALk5xr9jpJqIoR7-90" value="TBL_PURCHASE" style="html=1;dashed=0;whiteSpace=wrap;shape=partialRectangle;right=0;left=0;" vertex="1" parent="1">
          <mxGeometry x="840" y="552.5" width="190" height="35" as="geometry" />
        </mxCell>
        <mxCell id="4stogALk5xr9jpJqIoR7-91" value="TBL_ORDER_DETAILS" style="html=1;dashed=0;whiteSpace=wrap;shape=partialRectangle;right=0;left=0;" vertex="1" parent="1">
          <mxGeometry x="840" y="672.5" width="190" height="35" as="geometry" />
        </mxCell>
        <mxCell id="4stogALk5xr9jpJqIoR7-94" value="" style="endArrow=classic;html=1;rounded=0;exitX=0.997;exitY=0.226;exitDx=0;exitDy=0;exitPerimeter=0;entryX=0.071;entryY=0.263;entryDx=0;entryDy=0;entryPerimeter=0;" edge="1" parent="1" source="4stogALk5xr9jpJqIoR7-9" target="4stogALk5xr9jpJqIoR7-104">
          <mxGeometry relative="1" as="geometry">
            <mxPoint x="130" y="90" as="sourcePoint" />
            <mxPoint x="490" y="300" as="targetPoint" />
            <Array as="points">
              <mxPoint x="340" y="70" />
              <mxPoint x="340" y="300" />
            </Array>
          </mxGeometry>
        </mxCell>
        <mxCell id="4stogALk5xr9jpJqIoR7-95" value="Manage Category" style="edgeLabel;resizable=0;html=1;align=center;verticalAlign=middle;" connectable="0" vertex="1" parent="4stogALk5xr9jpJqIoR7-94">
          <mxGeometry relative="1" as="geometry">
            <mxPoint y="-108" as="offset" />
          </mxGeometry>
        </mxCell>
        <mxCell id="4stogALk5xr9jpJqIoR7-100" value="Register" style="ellipse;whiteSpace=wrap;html=1;aspect=fixed;" vertex="1" parent="1">
          <mxGeometry x="600" y="40" width="80" height="80" as="geometry" />
        </mxCell>
        <mxCell id="4stogALk5xr9jpJqIoR7-101" value="" style="endArrow=none;html=1;rounded=0;exitX=0.043;exitY=0.292;exitDx=0;exitDy=0;exitPerimeter=0;entryX=0.953;entryY=0.29;entryDx=0;entryDy=0;entryPerimeter=0;" edge="1" parent="1" source="4stogALk5xr9jpJqIoR7-100" target="4stogALk5xr9jpJqIoR7-100">
          <mxGeometry width="50" height="50" relative="1" as="geometry">
            <mxPoint x="615" y="97.5" as="sourcePoint" />
            <mxPoint x="665" y="47.5" as="targetPoint" />
          </mxGeometry>
        </mxCell>
        <mxCell id="4stogALk5xr9jpJqIoR7-102" value="Login" style="ellipse;whiteSpace=wrap;html=1;aspect=fixed;" vertex="1" parent="1">
          <mxGeometry x="600" y="160" width="80" height="80" as="geometry" />
        </mxCell>
        <mxCell id="4stogALk5xr9jpJqIoR7-103" value="" style="endArrow=none;html=1;rounded=0;exitX=0.043;exitY=0.292;exitDx=0;exitDy=0;exitPerimeter=0;entryX=0.953;entryY=0.29;entryDx=0;entryDy=0;entryPerimeter=0;" edge="1" parent="1" source="4stogALk5xr9jpJqIoR7-102" target="4stogALk5xr9jpJqIoR7-102">
          <mxGeometry width="50" height="50" relative="1" as="geometry">
            <mxPoint x="615" y="217.5" as="sourcePoint" />
            <mxPoint x="665" y="167.5" as="targetPoint" />
          </mxGeometry>
        </mxCell>
        <mxCell id="4stogALk5xr9jpJqIoR7-150" style="edgeStyle=orthogonalEdgeStyle;rounded=0;orthogonalLoop=1;jettySize=auto;html=1;exitX=0;exitY=1;exitDx=0;exitDy=0;" edge="1" parent="1" source="4stogALk5xr9jpJqIoR7-104">
          <mxGeometry relative="1" as="geometry">
            <mxPoint x="130" y="560" as="targetPoint" />
            <Array as="points">
              <mxPoint x="612" y="350" />
              <mxPoint x="530" y="350" />
              <mxPoint x="530" y="560" />
              <mxPoint x="150" y="560" />
            </Array>
          </mxGeometry>
        </mxCell>
        <mxCell id="4stogALk5xr9jpJqIoR7-152" value="Category Details" style="edgeLabel;html=1;align=center;verticalAlign=middle;resizable=0;points=[];" vertex="1" connectable="0" parent="4stogALk5xr9jpJqIoR7-150">
          <mxGeometry x="-0.3748" relative="1" as="geometry">
            <mxPoint x="-230" y="76" as="offset" />
          </mxGeometry>
        </mxCell>
        <mxCell id="4stogALk5xr9jpJqIoR7-104" value="Category" style="ellipse;whiteSpace=wrap;html=1;aspect=fixed;" vertex="1" parent="1">
          <mxGeometry x="600" y="280" width="80" height="80" as="geometry" />
        </mxCell>
        <mxCell id="4stogALk5xr9jpJqIoR7-105" value="" style="endArrow=none;html=1;rounded=0;exitX=0.043;exitY=0.292;exitDx=0;exitDy=0;exitPerimeter=0;entryX=0.953;entryY=0.29;entryDx=0;entryDy=0;entryPerimeter=0;" edge="1" parent="1" source="4stogALk5xr9jpJqIoR7-104" target="4stogALk5xr9jpJqIoR7-104">
          <mxGeometry width="50" height="50" relative="1" as="geometry">
            <mxPoint x="615" y="337.5" as="sourcePoint" />
            <mxPoint x="665" y="287.5" as="targetPoint" />
          </mxGeometry>
        </mxCell>
        <mxCell id="4stogALk5xr9jpJqIoR7-106" value="Stock" style="ellipse;whiteSpace=wrap;html=1;aspect=fixed;" vertex="1" parent="1">
          <mxGeometry x="600" y="400" width="80" height="80" as="geometry" />
        </mxCell>
        <mxCell id="4stogALk5xr9jpJqIoR7-107" value="" style="endArrow=none;html=1;rounded=0;exitX=0.043;exitY=0.292;exitDx=0;exitDy=0;exitPerimeter=0;entryX=0.953;entryY=0.29;entryDx=0;entryDy=0;entryPerimeter=0;" edge="1" parent="1" source="4stogALk5xr9jpJqIoR7-106" target="4stogALk5xr9jpJqIoR7-106">
          <mxGeometry width="50" height="50" relative="1" as="geometry">
            <mxPoint x="615" y="457.5" as="sourcePoint" />
            <mxPoint x="665" y="407.5" as="targetPoint" />
          </mxGeometry>
        </mxCell>
        <mxCell id="4stogALk5xr9jpJqIoR7-108" value="Purchase" style="ellipse;whiteSpace=wrap;html=1;aspect=fixed;" vertex="1" parent="1">
          <mxGeometry x="600" y="520" width="80" height="80" as="geometry" />
        </mxCell>
        <mxCell id="4stogALk5xr9jpJqIoR7-109" value="" style="endArrow=none;html=1;rounded=0;exitX=0.043;exitY=0.292;exitDx=0;exitDy=0;exitPerimeter=0;entryX=0.953;entryY=0.29;entryDx=0;entryDy=0;entryPerimeter=0;" edge="1" parent="1" source="4stogALk5xr9jpJqIoR7-108" target="4stogALk5xr9jpJqIoR7-108">
          <mxGeometry width="50" height="50" relative="1" as="geometry">
            <mxPoint x="615" y="577.5" as="sourcePoint" />
            <mxPoint x="665" y="527.5" as="targetPoint" />
          </mxGeometry>
        </mxCell>
        <mxCell id="4stogALk5xr9jpJqIoR7-178" style="edgeStyle=orthogonalEdgeStyle;rounded=0;orthogonalLoop=1;jettySize=auto;html=1;entryX=1;entryY=1;entryDx=0;entryDy=0;" edge="1" parent="1" source="4stogALk5xr9jpJqIoR7-110" target="4stogALk5xr9jpJqIoR7-11">
          <mxGeometry relative="1" as="geometry" />
        </mxCell>
        <mxCell id="4stogALk5xr9jpJqIoR7-179" value="View Order Details" style="edgeLabel;html=1;align=center;verticalAlign=middle;resizable=0;points=[];" vertex="1" connectable="0" parent="4stogALk5xr9jpJqIoR7-178">
          <mxGeometry x="0.193" y="-2" relative="1" as="geometry">
            <mxPoint as="offset" />
          </mxGeometry>
        </mxCell>
        <mxCell id="4stogALk5xr9jpJqIoR7-110" value="Order_details" style="ellipse;whiteSpace=wrap;html=1;aspect=fixed;" vertex="1" parent="1">
          <mxGeometry x="600" y="640" width="80" height="80" as="geometry" />
        </mxCell>
        <mxCell id="4stogALk5xr9jpJqIoR7-111" value="" style="endArrow=none;html=1;rounded=0;exitX=0.043;exitY=0.292;exitDx=0;exitDy=0;exitPerimeter=0;entryX=0.953;entryY=0.29;entryDx=0;entryDy=0;entryPerimeter=0;" edge="1" parent="1" source="4stogALk5xr9jpJqIoR7-110" target="4stogALk5xr9jpJqIoR7-110">
          <mxGeometry width="50" height="50" relative="1" as="geometry">
            <mxPoint x="615" y="697.5" as="sourcePoint" />
            <mxPoint x="665" y="647.5" as="targetPoint" />
          </mxGeometry>
        </mxCell>
        <mxCell id="4stogALk5xr9jpJqIoR7-181" style="edgeStyle=orthogonalEdgeStyle;rounded=0;orthogonalLoop=1;jettySize=auto;html=1;exitX=0;exitY=1;exitDx=0;exitDy=0;entryX=0.5;entryY=1;entryDx=0;entryDy=0;" edge="1" parent="1" source="4stogALk5xr9jpJqIoR7-112" target="4stogALk5xr9jpJqIoR7-11">
          <mxGeometry relative="1" as="geometry" />
        </mxCell>
        <mxCell id="4stogALk5xr9jpJqIoR7-185" value="View report" style="edgeLabel;html=1;align=center;verticalAlign=middle;resizable=0;points=[];" vertex="1" connectable="0" parent="4stogALk5xr9jpJqIoR7-181">
          <mxGeometry x="-0.3842" y="2" relative="1" as="geometry">
            <mxPoint as="offset" />
          </mxGeometry>
        </mxCell>
        <mxCell id="4stogALk5xr9jpJqIoR7-112" value="Generate&amp;nbsp;&lt;br&gt;Report" style="ellipse;whiteSpace=wrap;html=1;aspect=fixed;" vertex="1" parent="1">
          <mxGeometry x="600" y="760" width="80" height="80" as="geometry" />
        </mxCell>
        <mxCell id="4stogALk5xr9jpJqIoR7-113" value="" style="endArrow=none;html=1;rounded=0;exitX=0.043;exitY=0.292;exitDx=0;exitDy=0;exitPerimeter=0;entryX=0.953;entryY=0.29;entryDx=0;entryDy=0;entryPerimeter=0;" edge="1" parent="1" source="4stogALk5xr9jpJqIoR7-112" target="4stogALk5xr9jpJqIoR7-112">
          <mxGeometry width="50" height="50" relative="1" as="geometry">
            <mxPoint x="615" y="817.5" as="sourcePoint" />
            <mxPoint x="665" y="767.5" as="targetPoint" />
          </mxGeometry>
        </mxCell>
        <mxCell id="4stogALk5xr9jpJqIoR7-114" value="" style="endArrow=classic;html=1;rounded=0;exitX=0.023;exitY=0.385;exitDx=0;exitDy=0;exitPerimeter=0;entryX=1.005;entryY=0.292;entryDx=0;entryDy=0;entryPerimeter=0;" edge="1" parent="1" target="4stogALk5xr9jpJqIoR7-9">
          <mxGeometry relative="1" as="geometry">
            <mxPoint x="601.8400000000001" y="308.80000000000007" as="sourcePoint" />
            <mxPoint x="130" y="78" as="targetPoint" />
            <Array as="points">
              <mxPoint x="330" y="308" />
              <mxPoint x="330" y="78" />
            </Array>
          </mxGeometry>
        </mxCell>
        <mxCell id="4stogALk5xr9jpJqIoR7-115" value="View Category" style="edgeLabel;resizable=0;html=1;align=center;verticalAlign=middle;" connectable="0" vertex="1" parent="4stogALk5xr9jpJqIoR7-114">
          <mxGeometry relative="1" as="geometry">
            <mxPoint y="-99" as="offset" />
          </mxGeometry>
        </mxCell>
        <mxCell id="4stogALk5xr9jpJqIoR7-192" style="edgeStyle=orthogonalEdgeStyle;rounded=0;orthogonalLoop=1;jettySize=auto;html=1;exitX=1;exitY=0.5;exitDx=0;exitDy=0;entryX=0.5;entryY=0;entryDx=0;entryDy=0;" edge="1" parent="1" source="4stogALk5xr9jpJqIoR7-116" target="4stogALk5xr9jpJqIoR7-74">
          <mxGeometry relative="1" as="geometry">
            <Array as="points">
              <mxPoint x="670" y="30" />
              <mxPoint x="935" y="30" />
            </Array>
          </mxGeometry>
        </mxCell>
        <mxCell id="4stogALk5xr9jpJqIoR7-196" value="Register Details" style="edgeLabel;html=1;align=center;verticalAlign=middle;resizable=0;points=[];" vertex="1" connectable="0" parent="4stogALk5xr9jpJqIoR7-192">
          <mxGeometry x="-0.1881" relative="1" as="geometry">
            <mxPoint as="offset" />
          </mxGeometry>
        </mxCell>
        <mxCell id="4stogALk5xr9jpJqIoR7-116" value="1.0" style="text;html=1;strokeColor=none;fillColor=none;align=center;verticalAlign=middle;whiteSpace=wrap;rounded=0;" vertex="1" parent="1">
          <mxGeometry x="610" y="40" width="60" height="30" as="geometry" />
        </mxCell>
        <mxCell id="4stogALk5xr9jpJqIoR7-198" style="edgeStyle=orthogonalEdgeStyle;rounded=0;orthogonalLoop=1;jettySize=auto;html=1;exitX=0.998;exitY=0.456;exitDx=0;exitDy=0;entryX=0.5;entryY=0;entryDx=0;entryDy=0;exitPerimeter=0;" edge="1" parent="1" source="4stogALk5xr9jpJqIoR7-117" target="4stogALk5xr9jpJqIoR7-75">
          <mxGeometry relative="1" as="geometry">
            <Array as="points">
              <mxPoint x="670" y="150" />
              <mxPoint x="935" y="150" />
            </Array>
          </mxGeometry>
        </mxCell>
        <mxCell id="4stogALk5xr9jpJqIoR7-117" value="2.0" style="text;html=1;strokeColor=none;fillColor=none;align=center;verticalAlign=middle;whiteSpace=wrap;rounded=0;" vertex="1" parent="1">
          <mxGeometry x="610" y="160" width="60" height="30" as="geometry" />
        </mxCell>
        <mxCell id="4stogALk5xr9jpJqIoR7-118" value="3.0" style="text;html=1;strokeColor=none;fillColor=none;align=center;verticalAlign=middle;whiteSpace=wrap;rounded=0;" vertex="1" parent="1">
          <mxGeometry x="610" y="280" width="60" height="30" as="geometry" />
        </mxCell>
        <mxCell id="4stogALk5xr9jpJqIoR7-119" value="4.0" style="text;html=1;strokeColor=none;fillColor=none;align=center;verticalAlign=middle;whiteSpace=wrap;rounded=0;" vertex="1" parent="1">
          <mxGeometry x="610" y="400" width="60" height="30" as="geometry" />
        </mxCell>
        <mxCell id="4stogALk5xr9jpJqIoR7-120" value="5.0" style="text;html=1;strokeColor=none;fillColor=none;align=center;verticalAlign=middle;whiteSpace=wrap;rounded=0;" vertex="1" parent="1">
          <mxGeometry x="610" y="520" width="60" height="30" as="geometry" />
        </mxCell>
        <mxCell id="4stogALk5xr9jpJqIoR7-121" value="6.0" style="text;html=1;strokeColor=none;fillColor=none;align=center;verticalAlign=middle;whiteSpace=wrap;rounded=0;" vertex="1" parent="1">
          <mxGeometry x="610" y="640" width="60" height="30" as="geometry" />
        </mxCell>
        <mxCell id="4stogALk5xr9jpJqIoR7-122" value="7.0" style="text;html=1;strokeColor=none;fillColor=none;align=center;verticalAlign=middle;whiteSpace=wrap;rounded=0;" vertex="1" parent="1">
          <mxGeometry x="610" y="760" width="60" height="30" as="geometry" />
        </mxCell>
        <mxCell id="4stogALk5xr9jpJqIoR7-123" value="" style="endArrow=classic;html=1;rounded=0;entryX=0.057;entryY=0.255;entryDx=0;entryDy=0;entryPerimeter=0;" edge="1" parent="1" target="4stogALk5xr9jpJqIoR7-100">
          <mxGeometry relative="1" as="geometry">
            <mxPoint x="130" y="280" as="sourcePoint" />
            <mxPoint x="600" y="60" as="targetPoint" />
            <Array as="points">
              <mxPoint x="560" y="280" />
              <mxPoint x="560" y="60" />
            </Array>
          </mxGeometry>
        </mxCell>
        <mxCell id="4stogALk5xr9jpJqIoR7-124" value="Register Details&amp;nbsp;" style="edgeLabel;resizable=0;html=1;align=center;verticalAlign=middle;" connectable="0" vertex="1" parent="4stogALk5xr9jpJqIoR7-123">
          <mxGeometry relative="1" as="geometry">
            <mxPoint x="-287" as="offset" />
          </mxGeometry>
        </mxCell>
        <mxCell id="4stogALk5xr9jpJqIoR7-127" value="" style="endArrow=classic;html=1;rounded=0;exitX=0.017;exitY=0.379;exitDx=0;exitDy=0;exitPerimeter=0;entryX=1;entryY=0.092;entryDx=0;entryDy=0;entryPerimeter=0;" edge="1" parent="1" target="4stogALk5xr9jpJqIoR7-10">
          <mxGeometry relative="1" as="geometry">
            <mxPoint x="601.3599999999999" y="71.32000000000005" as="sourcePoint" />
            <mxPoint x="140" y="310" as="targetPoint" />
            <Array as="points">
              <mxPoint x="570" y="71" />
              <mxPoint x="570" y="291" />
            </Array>
          </mxGeometry>
        </mxCell>
        <mxCell id="4stogALk5xr9jpJqIoR7-128" value="Register Acknowledgement&amp;nbsp;" style="edgeLabel;resizable=0;html=1;align=center;verticalAlign=middle;" connectable="0" vertex="1" parent="4stogALk5xr9jpJqIoR7-127">
          <mxGeometry relative="1" as="geometry">
            <mxPoint x="-256" y="4" as="offset" />
          </mxGeometry>
        </mxCell>
        <mxCell id="4stogALk5xr9jpJqIoR7-135" value="" style="endArrow=classic;html=1;rounded=0;entryX=0;entryY=0.5;entryDx=0;entryDy=0;" edge="1" parent="1" target="4stogALk5xr9jpJqIoR7-104">
          <mxGeometry relative="1" as="geometry">
            <mxPoint x="130" y="319.69" as="sourcePoint" />
            <mxPoint x="230" y="319.69" as="targetPoint" />
          </mxGeometry>
        </mxCell>
        <mxCell id="4stogALk5xr9jpJqIoR7-136" value="View Category" style="edgeLabel;resizable=0;html=1;align=center;verticalAlign=middle;" connectable="0" vertex="1" parent="4stogALk5xr9jpJqIoR7-135">
          <mxGeometry relative="1" as="geometry">
            <mxPoint x="-155" as="offset" />
          </mxGeometry>
        </mxCell>
        <mxCell id="4stogALk5xr9jpJqIoR7-137" value="" style="endArrow=classic;html=1;rounded=0;exitX=0.029;exitY=0.667;exitDx=0;exitDy=0;exitPerimeter=0;entryX=1.005;entryY=0.405;entryDx=0;entryDy=0;entryPerimeter=0;" edge="1" parent="1" source="4stogALk5xr9jpJqIoR7-104" target="4stogALk5xr9jpJqIoR7-10">
          <mxGeometry relative="1" as="geometry">
            <mxPoint x="601.6000000000001" y="333.19999999999993" as="sourcePoint" />
            <mxPoint x="130" y="333" as="targetPoint" />
          </mxGeometry>
        </mxCell>
        <mxCell id="4stogALk5xr9jpJqIoR7-138" value="Category Details" style="edgeLabel;resizable=0;html=1;align=center;verticalAlign=middle;" connectable="0" vertex="1" parent="4stogALk5xr9jpJqIoR7-137">
          <mxGeometry relative="1" as="geometry">
            <mxPoint x="-165" y="-3" as="offset" />
          </mxGeometry>
        </mxCell>
        <mxCell id="4stogALk5xr9jpJqIoR7-139" value="" style="endArrow=classic;html=1;rounded=0;entryX=-0.014;entryY=0.513;entryDx=0;entryDy=0;entryPerimeter=0;" edge="1" parent="1" target="4stogALk5xr9jpJqIoR7-119">
          <mxGeometry relative="1" as="geometry">
            <mxPoint x="130" y="344.62" as="sourcePoint" />
            <mxPoint x="600" y="415" as="targetPoint" />
            <Array as="points">
              <mxPoint x="560" y="345" />
              <mxPoint x="560" y="415" />
            </Array>
          </mxGeometry>
        </mxCell>
        <mxCell id="4stogALk5xr9jpJqIoR7-140" value="View Stock" style="edgeLabel;resizable=0;html=1;align=center;verticalAlign=middle;" connectable="0" vertex="1" parent="4stogALk5xr9jpJqIoR7-139">
          <mxGeometry relative="1" as="geometry">
            <mxPoint x="-205" y="3" as="offset" />
          </mxGeometry>
        </mxCell>
        <mxCell id="4stogALk5xr9jpJqIoR7-141" value="" style="endArrow=classic;html=1;rounded=0;entryX=1.006;entryY=0.617;entryDx=0;entryDy=0;entryPerimeter=0;exitX=0.013;exitY=0.379;exitDx=0;exitDy=0;exitPerimeter=0;" edge="1" parent="1" source="4stogALk5xr9jpJqIoR7-106" target="4stogALk5xr9jpJqIoR7-10">
          <mxGeometry relative="1" as="geometry">
            <mxPoint x="550" y="430" as="sourcePoint" />
            <mxPoint x="130" y="360" as="targetPoint" />
            <Array as="points">
              <mxPoint x="550" y="430" />
              <mxPoint x="550" y="360" />
            </Array>
          </mxGeometry>
        </mxCell>
        <mxCell id="4stogALk5xr9jpJqIoR7-142" value="Stock Details" style="edgeLabel;resizable=0;html=1;align=center;verticalAlign=middle;" connectable="0" vertex="1" parent="4stogALk5xr9jpJqIoR7-141">
          <mxGeometry relative="1" as="geometry">
            <mxPoint x="-190" as="offset" />
          </mxGeometry>
        </mxCell>
        <mxCell id="4stogALk5xr9jpJqIoR7-143" value="" style="endArrow=classic;html=1;rounded=0;entryX=0;entryY=0.5;entryDx=0;entryDy=0;" edge="1" parent="1" target="4stogALk5xr9jpJqIoR7-106">
          <mxGeometry relative="1" as="geometry">
            <mxPoint x="130" y="90" as="sourcePoint" />
            <mxPoint x="320" y="470" as="targetPoint" />
            <Array as="points">
              <mxPoint x="320" y="90" />
              <mxPoint x="320" y="440" />
            </Array>
          </mxGeometry>
        </mxCell>
        <mxCell id="4stogALk5xr9jpJqIoR7-144" value="Manage Stock" style="edgeLabel;resizable=0;html=1;align=center;verticalAlign=middle;" connectable="0" vertex="1" parent="4stogALk5xr9jpJqIoR7-143">
          <mxGeometry relative="1" as="geometry">
            <mxPoint x="-10" y="-160" as="offset" />
          </mxGeometry>
        </mxCell>
        <mxCell id="4stogALk5xr9jpJqIoR7-145" value="" style="endArrow=classic;html=1;rounded=0;entryX=1;entryY=0.462;entryDx=0;entryDy=0;entryPerimeter=0;" edge="1" parent="1" target="4stogALk5xr9jpJqIoR7-9">
          <mxGeometry relative="1" as="geometry">
            <mxPoint x="600" y="450" as="sourcePoint" />
            <mxPoint x="310" y="80" as="targetPoint" />
            <Array as="points">
              <mxPoint x="310" y="450" />
              <mxPoint x="310" y="100" />
            </Array>
          </mxGeometry>
        </mxCell>
        <mxCell id="4stogALk5xr9jpJqIoR7-146" value="View stock" style="edgeLabel;resizable=0;html=1;align=center;verticalAlign=middle;" connectable="0" vertex="1" parent="4stogALk5xr9jpJqIoR7-145">
          <mxGeometry relative="1" as="geometry">
            <mxPoint y="-160" as="offset" />
          </mxGeometry>
        </mxCell>
        <mxCell id="4stogALk5xr9jpJqIoR7-147" style="edgeStyle=orthogonalEdgeStyle;rounded=0;orthogonalLoop=1;jettySize=auto;html=1;entryX=0.061;entryY=0.751;entryDx=0;entryDy=0;entryPerimeter=0;" edge="1" parent="1" source="4stogALk5xr9jpJqIoR7-11" target="4stogALk5xr9jpJqIoR7-106">
          <mxGeometry relative="1" as="geometry">
            <mxPoint x="600" y="460" as="targetPoint" />
            <Array as="points">
              <mxPoint x="365" y="570" />
              <mxPoint x="365" y="460" />
              <mxPoint x="600" y="460" />
            </Array>
          </mxGeometry>
        </mxCell>
        <mxCell id="4stogALk5xr9jpJqIoR7-164" value="Request stock" style="edgeLabel;html=1;align=center;verticalAlign=middle;resizable=0;points=[];" vertex="1" connectable="0" parent="4stogALk5xr9jpJqIoR7-147">
          <mxGeometry x="-0.4992" y="-1" relative="1" as="geometry">
            <mxPoint x="-76" y="-1" as="offset" />
          </mxGeometry>
        </mxCell>
        <mxCell id="4stogALk5xr9jpJqIoR7-155" value="" style="endArrow=classic;html=1;rounded=0;" edge="1" parent="1" target="4stogALk5xr9jpJqIoR7-102">
          <mxGeometry relative="1" as="geometry">
            <mxPoint x="130" y="520" as="sourcePoint" />
            <mxPoint x="200" y="140" as="targetPoint" />
            <Array as="points">
              <mxPoint x="200" y="520" />
              <mxPoint x="200" y="200" />
            </Array>
          </mxGeometry>
        </mxCell>
        <mxCell id="4stogALk5xr9jpJqIoR7-156" value="Login&amp;nbsp; details" style="edgeLabel;resizable=0;html=1;align=center;verticalAlign=middle;" connectable="0" vertex="1" parent="4stogALk5xr9jpJqIoR7-155">
          <mxGeometry relative="1" as="geometry">
            <mxPoint x="-5" y="240" as="offset" />
          </mxGeometry>
        </mxCell>
        <mxCell id="4stogALk5xr9jpJqIoR7-159" value="" style="endArrow=classic;html=1;rounded=0;exitX=0.038;exitY=0.621;exitDx=0;exitDy=0;exitPerimeter=0;" edge="1" parent="1" source="4stogALk5xr9jpJqIoR7-102">
          <mxGeometry relative="1" as="geometry">
            <mxPoint x="490" y="210" as="sourcePoint" />
            <mxPoint x="130" y="530" as="targetPoint" />
            <Array as="points">
              <mxPoint x="210" y="210" />
              <mxPoint x="210" y="530" />
            </Array>
          </mxGeometry>
        </mxCell>
        <mxCell id="4stogALk5xr9jpJqIoR7-162" value="Login Acknowledgement&amp;nbsp;" style="edgeLabel;html=1;align=center;verticalAlign=middle;resizable=0;points=[];" vertex="1" connectable="0" parent="4stogALk5xr9jpJqIoR7-159">
          <mxGeometry x="0.652" y="2" relative="1" as="geometry">
            <mxPoint as="offset" />
          </mxGeometry>
        </mxCell>
        <mxCell id="4stogALk5xr9jpJqIoR7-165" value="" style="endArrow=classic;html=1;rounded=0;exitX=0.126;exitY=0.836;exitDx=0;exitDy=0;exitPerimeter=0;" edge="1" parent="1" source="4stogALk5xr9jpJqIoR7-106" target="4stogALk5xr9jpJqIoR7-11">
          <mxGeometry relative="1" as="geometry">
            <mxPoint x="609.1200000000001" y="466.76" as="sourcePoint" />
            <mxPoint x="400" y="601" as="targetPoint" />
            <Array as="points">
              <mxPoint x="370" y="467" />
              <mxPoint x="370" y="530" />
              <mxPoint x="370" y="585" />
            </Array>
          </mxGeometry>
        </mxCell>
        <mxCell id="4stogALk5xr9jpJqIoR7-166" value="Stock Details" style="edgeLabel;resizable=0;html=1;align=center;verticalAlign=middle;" connectable="0" vertex="1" parent="4stogALk5xr9jpJqIoR7-165">
          <mxGeometry relative="1" as="geometry">
            <mxPoint x="-80" y="59" as="offset" />
          </mxGeometry>
        </mxCell>
        <mxCell id="4stogALk5xr9jpJqIoR7-167" value="" style="endArrow=classic;html=1;rounded=0;entryX=0.018;entryY=0.375;entryDx=0;entryDy=0;entryPerimeter=0;" edge="1" parent="1" target="4stogALk5xr9jpJqIoR7-108">
          <mxGeometry relative="1" as="geometry">
            <mxPoint x="130" y="600" as="sourcePoint" />
            <mxPoint x="600" y="550" as="targetPoint" />
            <Array as="points">
              <mxPoint x="560" y="600" />
              <mxPoint x="560" y="550" />
            </Array>
          </mxGeometry>
        </mxCell>
        <mxCell id="4stogALk5xr9jpJqIoR7-168" value="Purchase request" style="edgeLabel;resizable=0;html=1;align=center;verticalAlign=middle;" connectable="0" vertex="1" parent="4stogALk5xr9jpJqIoR7-167">
          <mxGeometry relative="1" as="geometry">
            <mxPoint x="-201" as="offset" />
          </mxGeometry>
        </mxCell>
        <mxCell id="4stogALk5xr9jpJqIoR7-172" value="" style="endArrow=classic;html=1;rounded=0;exitX=0.005;exitY=0.527;exitDx=0;exitDy=0;entryX=0.997;entryY=0.706;entryDx=0;entryDy=0;entryPerimeter=0;exitPerimeter=0;" edge="1" parent="1" source="4stogALk5xr9jpJqIoR7-108" target="4stogALk5xr9jpJqIoR7-11">
          <mxGeometry relative="1" as="geometry">
            <mxPoint x="598" y="562" as="sourcePoint" />
            <mxPoint x="130.4699999999999" y="611.31" as="targetPoint" />
            <Array as="points">
              <mxPoint x="568" y="562" />
              <mxPoint x="568" y="611" />
            </Array>
          </mxGeometry>
        </mxCell>
        <mxCell id="4stogALk5xr9jpJqIoR7-173" value="Confirm purchase&amp;nbsp;" style="edgeLabel;resizable=0;html=1;align=center;verticalAlign=middle;" connectable="0" vertex="1" parent="4stogALk5xr9jpJqIoR7-172">
          <mxGeometry relative="1" as="geometry">
            <mxPoint x="-99" y="-1" as="offset" />
          </mxGeometry>
        </mxCell>
        <mxCell id="4stogALk5xr9jpJqIoR7-174" value="" style="endArrow=classic;html=1;rounded=0;entryX=0.07;entryY=0.249;entryDx=0;entryDy=0;entryPerimeter=0;" edge="1" parent="1" target="4stogALk5xr9jpJqIoR7-110">
          <mxGeometry relative="1" as="geometry">
            <mxPoint x="130" y="630" as="sourcePoint" />
            <mxPoint x="560" y="670" as="targetPoint" />
            <Array as="points">
              <mxPoint x="560" y="630" />
              <mxPoint x="560" y="660" />
            </Array>
          </mxGeometry>
        </mxCell>
        <mxCell id="4stogALk5xr9jpJqIoR7-175" value="Request Order Details" style="edgeLabel;resizable=0;html=1;align=center;verticalAlign=middle;" connectable="0" vertex="1" parent="4stogALk5xr9jpJqIoR7-174">
          <mxGeometry relative="1" as="geometry">
            <mxPoint x="-173" as="offset" />
          </mxGeometry>
        </mxCell>
        <mxCell id="4stogALk5xr9jpJqIoR7-187" value="" style="endArrow=classic;html=1;rounded=0;entryX=0;entryY=0;entryDx=0;entryDy=0;" edge="1" parent="1" target="4stogALk5xr9jpJqIoR7-112">
          <mxGeometry relative="1" as="geometry">
            <mxPoint x="130" y="140" as="sourcePoint" />
            <mxPoint x="270" y="783.7209302325581" as="targetPoint" />
            <Array as="points">
              <mxPoint x="270" y="140" />
              <mxPoint x="270" y="770" />
            </Array>
          </mxGeometry>
        </mxCell>
        <mxCell id="4stogALk5xr9jpJqIoR7-188" value="Label" style="edgeLabel;resizable=0;html=1;align=center;verticalAlign=middle;" connectable="0" vertex="1" parent="4stogALk5xr9jpJqIoR7-187">
          <mxGeometry relative="1" as="geometry" />
        </mxCell>
        <mxCell id="4stogALk5xr9jpJqIoR7-190" value="Generate report" style="edgeLabel;html=1;align=center;verticalAlign=middle;resizable=0;points=[];" vertex="1" connectable="0" parent="4stogALk5xr9jpJqIoR7-187">
          <mxGeometry x="-0.943" relative="1" as="geometry">
            <mxPoint x="38" as="offset" />
          </mxGeometry>
        </mxCell>
        <mxCell id="4stogALk5xr9jpJqIoR7-189" value="" style="edgeStyle=none;orthogonalLoop=1;jettySize=auto;html=1;rounded=0;exitX=0.008;exitY=0.373;exitDx=0;exitDy=0;exitPerimeter=0;entryX=1.011;entryY=0.933;entryDx=0;entryDy=0;entryPerimeter=0;" edge="1" parent="1">
          <mxGeometry width="100" relative="1" as="geometry">
            <mxPoint x="600.0000000000001" y="788.55" as="sourcePoint" />
            <mxPoint x="130.78999999999996" y="159.99999999999997" as="targetPoint" />
            <Array as="points">
              <mxPoint x="239.36" y="788.71" />
              <mxPoint x="240" y="160" />
            </Array>
          </mxGeometry>
        </mxCell>
        <mxCell id="4stogALk5xr9jpJqIoR7-191" value="View report" style="edgeLabel;html=1;align=center;verticalAlign=middle;resizable=0;points=[];" vertex="1" connectable="0" parent="4stogALk5xr9jpJqIoR7-189">
          <mxGeometry x="0.8794" y="-1" relative="1" as="geometry">
            <mxPoint as="offset" />
          </mxGeometry>
        </mxCell>
      </root>
    </mxGraphModel>
  </diagram>
</mxfile>
